HIERARCHY
ROOT Hips
{
	OFFSET -0.283425 86.549622 1.819384
	CHANNELS 6 Xposition Yposition Zposition Zrotation Yrotation Xrotation 
	JOINT Spine
	{
		OFFSET 0.000000 8.814246 -2.080107
		CHANNELS 3 Zrotation Yrotation Xrotation
		JOINT Spine1
		{
			OFFSET -0.000000 8.844141 0.000000
			CHANNELS 3 Zrotation Yrotation Xrotation
			JOINT Spine2
			{
				OFFSET -0.000000 11.682268 0.000000
				CHANNELS 3 Zrotation Yrotation Xrotation
				JOINT Spine3
				{
					OFFSET 0.000000 11.746700 -0.000000
					CHANNELS 3 Zrotation Yrotation Xrotation
					JOINT Neck
					{
						OFFSET -0.000000 17.658264 0.000000
						CHANNELS 3 Zrotation Yrotation Xrotation
						JOINT Neck1
						{
							OFFSET 0.000000 5.101515 0.000000
							CHANNELS 3 Zrotation Yrotation Xrotation
							JOINT Head
							{
								OFFSET 0.000000 5.101515 0.000000
								CHANNELS 3 Zrotation Yrotation Xrotation
								JOINT HeadEnd
								{
									OFFSET 0.000000 11.655085 0.000000
									CHANNELS 3 Zrotation Yrotation Xrotation
									End Site
									{
										OFFSET 0.000000 0.000000 0.000000
									}
								}
							}
						}
					}
					JOINT RightShoulder
					{
						OFFSET -2.625389 11.175210 0.000000
						CHANNELS 3 Zrotation Yrotation Xrotation
						JOINT RightArm
						{
							OFFSET -0.000000 10.434715 -0.000000
							CHANNELS 3 Zrotation Yrotation Xrotation
							JOINT RightForeArm
							{
								OFFSET -0.000000 29.628420 -0.000000
								CHANNELS 3 Zrotation Yrotation Xrotation
								JOINT RightHand
								{
									OFFSET 0.000000 22.857611 0.000000
									CHANNELS 3 Zrotation Yrotation Xrotation
									JOINT RightHandThumb1
									{
										OFFSET -2.867323 3.959563 2.944291
										CHANNELS 3 Zrotation Yrotation Xrotation
										JOINT RightHandThumb2
										{
											OFFSET -0.000000 3.350399 -0.000000
											CHANNELS 3 Zrotation Yrotation Xrotation
											JOINT RightHandThumb3
											{
												OFFSET -0.000000 3.756509 -0.000000
												CHANNELS 3 Zrotation Yrotation Xrotation
												JOINT RightHandThumb4
												{
													OFFSET 0.000000 3.147345 -0.000000
													CHANNELS 3 Zrotation Yrotation Xrotation
													End Site
													{
														OFFSET 0.000000 0.000000 0.000000
													}
												}
											}
										}
									}
									JOINT RightHandIndex1
									{
										OFFSET -0.086752 10.030893 2.345280
										CHANNELS 3 Zrotation Yrotation Xrotation
										JOINT RightHandIndex2
										{
											OFFSET -0.000000 4.061090 0.000000
											CHANNELS 3 Zrotation Yrotation Xrotation
											JOINT RightHandIndex3
											{
												OFFSET -0.000000 3.248873 -0.000000
												CHANNELS 3 Zrotation Yrotation Xrotation
												JOINT RightHandIndex4
												{
													OFFSET 0.000000 2.639709 0.000000
													CHANNELS 3 Zrotation Yrotation Xrotation
													End Site
													{
														OFFSET 0.000000 0.000000 0.000000
													}
												}
											}
										}
									}
									JOINT RightHandMiddle1
									{
										OFFSET 0.104102 9.502952 0.006768
										CHANNELS 3 Zrotation Yrotation Xrotation
										JOINT RightHandMiddle2
										{
											OFFSET -0.000000 4.568727 0.000000
											CHANNELS 3 Zrotation Yrotation Xrotation
											JOINT RightHandMiddle3
											{
												OFFSET 0.000000 3.654981 0.000000
												CHANNELS 3 Zrotation Yrotation Xrotation
												JOINT RightHandMiddle4
												{
													OFFSET 0.000000 2.741236 -0.000000
													CHANNELS 3 Zrotation Yrotation Xrotation
													End Site
													{
														OFFSET 0.000000 0.000000 0.000000
													}
												}
											}
										}
									}
									JOINT RightHandRing1
									{
										OFFSET 0.086752 8.921708 -2.267442
										CHANNELS 3 Zrotation Yrotation Xrotation
										JOINT RightHandRing2
										{
											OFFSET 0.000000 4.061090 0.000000
											CHANNELS 3 Zrotation Yrotation Xrotation
											JOINT RightHandRing3
											{
												OFFSET 0.000000 3.654981 0.000000
												CHANNELS 3 Zrotation Yrotation Xrotation
												JOINT RightHandRing4
												{
													OFFSET -0.000000 2.741236 -0.000000
													CHANNELS 3 Zrotation Yrotation Xrotation
													End Site
													{
														OFFSET 0.000000 0.000000 0.000000
													}
												}
											}
										}
									}
									JOINT RightHandPinky1
									{
										OFFSET -0.173504 7.976997 -4.467199
										CHANNELS 3 Zrotation Yrotation Xrotation
										JOINT RightHandPinky2
										{
											OFFSET -0.000000 3.350399 -0.000000
											CHANNELS 3 Zrotation Yrotation Xrotation
											JOINT RightHandPinky3
											{
												OFFSET 0.000000 2.842763 -0.000000
												CHANNELS 3 Zrotation Yrotation Xrotation
												JOINT RightHandPinky4
												{
													OFFSET 0.000000 2.639709 0.000000
													CHANNELS 3 Zrotation Yrotation Xrotation
													End Site
													{
														OFFSET 0.000000 0.000000 0.000000
													}
												}
											}
										}
									}
									JOINT RightForeArmEnd
									{
										OFFSET 0.000000 0.000000 0.000000
										CHANNELS 3 Zrotation Yrotation Xrotation
										End Site
										{
											OFFSET 0.000000 0.000000 0.000000
										}
									}
								}
								JOINT RightArmEnd
								{
									OFFSET 0.000000 0.000000 0.000000
									CHANNELS 3 Zrotation Yrotation Xrotation
									End Site
									{
										OFFSET 0.000000 0.000000 0.000000
									}
								}
							}
						}
					}
					JOINT LeftShoulder
					{
						OFFSET 2.625389 11.175210 -0.000000
						CHANNELS 3 Zrotation Yrotation Xrotation
						JOINT LeftArm
						{
							OFFSET -0.000000 10.813635 -0.000000
							CHANNELS 3 Zrotation Yrotation Xrotation
							JOINT LeftForeArm
							{
								OFFSET -0.000000 28.724781 0.000000
								CHANNELS 3 Zrotation Yrotation Xrotation
								JOINT LeftHand
								{
									OFFSET 0.644384 25.716167 -0.328871
									CHANNELS 3 Zrotation Yrotation Xrotation
									JOINT LeftHandThumb1
									{
										OFFSET 2.867323 3.959563 2.944291
										CHANNELS 3 Zrotation Yrotation Xrotation
										JOINT LeftHandThumb2
										{
											OFFSET 0.000000 3.350399 -0.000000
											CHANNELS 3 Zrotation Yrotation Xrotation
											JOINT LeftHandThumb3
											{
												OFFSET 0.000000 3.756509 0.000000
												CHANNELS 3 Zrotation Yrotation Xrotation
												JOINT LeftHandThumb4
												{
													OFFSET 0.000000 3.100000 -0.000000
													CHANNELS 3 Zrotation Yrotation Xrotation
													End Site
													{
														OFFSET 0.000000 0.000000 0.000000
													}
												}
											}
										}
									}
									JOINT LeftHandIndex1
									{
										OFFSET 0.086752 10.030893 2.345280
										CHANNELS 3 Zrotation Yrotation Xrotation
										JOINT LeftHandIndex2
										{
											OFFSET 0.000000 4.061090 -0.000000
											CHANNELS 3 Zrotation Yrotation Xrotation
											JOINT LeftHandIndex3
											{
												OFFSET -0.000000 3.248873 0.000000
												CHANNELS 3 Zrotation Yrotation Xrotation
												JOINT LeftHandIndex4
												{
													OFFSET 0.000000 2.639709 -0.000000
													CHANNELS 3 Zrotation Yrotation Xrotation
													End Site
													{
														OFFSET 0.000000 0.000000 0.000000
													}
												}
											}
										}
									}
									JOINT LeftHandMiddle1
									{
										OFFSET -0.104102 9.502952 0.006768
										CHANNELS 3 Zrotation Yrotation Xrotation
										JOINT LeftHandMiddle2
										{
											OFFSET 0.000000 4.568727 -0.000000
											CHANNELS 3 Zrotation Yrotation Xrotation
											JOINT LeftHandMiddle3
											{
												OFFSET -0.000000 3.654981 0.000000
												CHANNELS 3 Zrotation Yrotation Xrotation
												JOINT LeftHandMiddle4
												{
													OFFSET -0.000000 2.741236 -0.000000
													CHANNELS 3 Zrotation Yrotation Xrotation
													End Site
													{
														OFFSET 0.000000 0.000000 0.000000
													}
												}
											}
										}
									}
									JOINT LeftHandRing1
									{
										OFFSET -0.086752 8.921708 -2.267442
										CHANNELS 3 Zrotation Yrotation Xrotation
										JOINT LeftHandRing2
										{
											OFFSET 0.000000 4.061090 -0.000000
											CHANNELS 3 Zrotation Yrotation Xrotation
											JOINT LeftHandRing3
											{
												OFFSET -0.000000 3.654981 0.000000
												CHANNELS 3 Zrotation Yrotation Xrotation
												JOINT LeftHandRing4
												{
													OFFSET 0.000000 2.741236 0.000000
													CHANNELS 3 Zrotation Yrotation Xrotation
													End Site
													{
														OFFSET 0.000000 0.000000 0.000000
													}
												}
											}
										}
									}
									JOINT LeftHandPinky1
									{
										OFFSET 0.173504 7.976997 -4.467199
										CHANNELS 3 Zrotation Yrotation Xrotation
										JOINT LeftHandPinky2
										{
											OFFSET -0.000000 3.350399 -0.000000
											CHANNELS 3 Zrotation Yrotation Xrotation
											JOINT LeftHandPinky3
											{
												OFFSET -0.000000 2.842763 0.000000
												CHANNELS 3 Zrotation Yrotation Xrotation
												JOINT LeftHandPinky4
												{
													OFFSET -0.000000 2.639709 0.000000
													CHANNELS 3 Zrotation Yrotation Xrotation
													End Site
													{
														OFFSET 0.000000 0.000000 0.000000
													}
												}
											}
										}
									}
									JOINT LeftForeArmEnd
									{
										OFFSET 0.000000 0.000000 0.000000
										CHANNELS 3 Zrotation Yrotation Xrotation
										End Site
										{
											OFFSET 0.000000 0.000000 0.000000
										}
									}
								}
								JOINT LeftArmEnd
								{
									OFFSET 0.000000 0.000000 0.000000
									CHANNELS 3 Zrotation Yrotation Xrotation
									End Site
									{
										OFFSET 0.000000 0.000000 0.000000
									}
								}
							}
						}
					}
				}
			}
		}
	}
	JOINT RightUpLeg
	{
		OFFSET -11.289943 -0.000000 -0.000000
		CHANNELS 3 Zrotation Yrotation Xrotation
		JOINT RightLeg
		{
			OFFSET 0.000000 -38.200325 -0.000000
			CHANNELS 3 Zrotation Yrotation Xrotation
			JOINT RightFoot
			{
				OFFSET -0.000000 -39.900856 -0.000000
				CHANNELS 3 Zrotation Yrotation Xrotation
				JOINT RightToeBase
				{
					OFFSET -0.000000 -0.000000 15.261641
					CHANNELS 3 Zrotation Yrotation Xrotation
					JOINT RightToeBaseEnd
					{
						OFFSET -0.000000 0.000000 7.370709
						CHANNELS 3 Zrotation Yrotation Xrotation
						End Site
						{
							OFFSET 0.000000 0.000000 0.000000
						}
					}
				}
				JOINT RightLegEnd
				{
					OFFSET 0.000000 0.000000 0.000000
					CHANNELS 3 Zrotation Yrotation Xrotation
					End Site
					{
						OFFSET 0.000000 0.000000 0.000000
					}
				}
			}
			JOINT RightUpLegEnd
			{
				OFFSET 0.000000 0.000000 0.000000
				CHANNELS 3 Zrotation Yrotation Xrotation
				End Site
				{
					OFFSET 0.000000 0.000000 0.000000
				}
			}
		}
	}
	JOINT LeftUpLeg
	{
		OFFSET 11.315661 0.000000 0.000000
		CHANNELS 3 Zrotation Yrotation Xrotation
		JOINT LeftLeg
		{
			OFFSET 0.000000 -38.200325 0.000000
			CHANNELS 3 Zrotation Yrotation Xrotation
			JOINT LeftFoot
			{
				OFFSET 0.000000 -39.900856 -0.000000
				CHANNELS 3 Zrotation Yrotation Xrotation
				JOINT LeftToeBase
				{
					OFFSET 0.000000 0.000000 15.261641
					CHANNELS 3 Zrotation Yrotation Xrotation
					JOINT LeftToeBaseEnd
					{
						OFFSET -0.000000 0.000000 7.539996
						CHANNELS 3 Zrotation Yrotation Xrotation
						End Site
						{
							OFFSET 0.000000 0.000000 0.000000
						}
					}
				}
				JOINT LeftLegEnd
				{
					OFFSET 0.000000 0.000000 0.000000
					CHANNELS 3 Zrotation Yrotation Xrotation
					End Site
					{
						OFFSET 0.000000 0.000000 0.000000
					}
				}
			}
			JOINT LeftUpLegEnd
			{
				OFFSET 0.000000 0.000000 0.000000
				CHANNELS 3 Zrotation Yrotation Xrotation
				End Site
				{
					OFFSET 0.000000 0.000000 0.000000
				}
			}
		}
	}
}
MOTION
Frames: 4
Frame Time: 0.016667
7.041859 86.210716 15.743226 0.665791 13.211838 -10.312769 -1.954828 0.237073 5.534957 1.312823 -0.235733 -0.664690 -1.871595 1.209448 12.388016 -0.260058 0.001829 1.451167 10.257421 -3.296392 11.988555 -2.384777 -2.314885 -6.353843 2.036835 3.584596 -23.108503 0.000000 0.000000 0.000000 96.347794 -1.071590 4.991971 66.112495 -35.997841 1.335734 1.243666 13.495456 26.830116 -2.610275 7.466357 -17.802183 11.343148 -1.855687 39.637074 0.000013 0.000037 -27.755051 0.000021 0.000039 -19.227026 0.000005 -0.000005 -0.000042 18.869446 0.021118 -9.649803 13.237577 0.062279 -0.274280 13.333083 0.092978 -0.277827 0.000006 0.000014 -0.000014 19.684380 -0.003897 -10.828376 14.153428 0.040874 -0.161813 14.010222 0.047489 -0.137202 0.000004 -0.000076 0.000001 23.086897 -0.070341 -9.772616 16.676994 -0.061224 0.308280 16.537569 -0.082547 0.237838 -0.000012 -0.000521 0.000021 23.801752 -0.218446 -9.706722 17.590584 -0.230634 1.120569 17.527000 -0.271270 0.900071 0.000820 -0.000011 0.000000 0.000000 0.000000 0.000000 0.000000 0.000000 0.000000 -92.470764 0.383347 3.936524 -59.003838 41.441330 0.167779 -1.345332 -2.195360 45.274567 4.099649 -8.995570 -22.901943 -12.516927 1.900342 39.101555 -0.000015 0.000023 -30.895655 -0.000138 -0.000029 -21.444424 0.000516 -0.000012 0.001059 -29.201519 0.122691 -18.918249 -19.478029 0.079390 0.349963 -19.879517 0.103486 0.398977 0.000012 -0.002521 0.000001 -30.731365 0.063132 -17.606401 -20.828102 0.032122 0.171938 -20.898151 0.037728 0.146487 -0.000368 -0.000085 -0.000174 -36.975780 -0.012237 -11.935485 -25.211298 -0.064608 -0.299199 -25.145472 -0.066996 -0.222917 0.000488 0.000011 0.000008 -40.588757 -0.101643 -6.316661 -27.108669 -0.188332 -0.967771 -26.982306 -0.204690 -0.828264 -0.000215 -0.000004 -0.000046 0.000000 0.000000 0.000000 0.000000 0.000000 0.000000 -7.493272 4.466911 8.783747 -0.370680 -0.744668 26.349842 3.523156 -10.242785 12.792620 -0.042147 -0.962593 -30.510979 0.000000 0.000000 0.000000 0.000000 0.000000 0.000000 0.000000 0.000000 0.000000 -3.793367 -3.245266 6.677155 0.059502 0.073962 18.270687 8.654875 2.185171 12.317595 -0.026986 0.576584 -27.542770 0.000000 0.000000 0.000000 0.000000 0.000000 0.000000 0.000000 0.000000 0.000000 
7.122694 86.223175 15.715767 0.674419 13.352098 -10.311840 -2.011580 0.247107 5.514349 1.287657 -0.218950 -0.578621 -1.849307 1.206608 12.287512 -0.254862 0.003133 1.510840 10.099636 -3.274116 12.072870 -2.397811 -2.393884 -6.319871 2.052191 3.580110 -23.121286 0.000000 0.000000 0.000000 96.374893 -1.063139 4.956971 65.891106 -35.915440 1.585474 1.266945 13.509598 26.756920 -2.194174 7.666014 -17.705658 11.519875 -1.861830 39.567024 0.000013 0.000037 -28.186338 0.000022 0.000040 -19.524271 0.000005 -0.000005 -0.000042 19.649490 0.022912 -9.750584 13.827181 0.069539 -0.292729 13.908423 0.100152 -0.298414 0.000006 0.000014 -0.000014 20.437731 -0.003618 -10.814927 14.722528 0.043780 -0.168043 14.576516 0.049464 -0.143416 0.000003 -0.000076 0.000002 23.788038 -0.071680 -9.645229 17.204693 -0.065242 0.314155 17.072506 -0.085465 0.242633 -0.000012 -0.000503 0.000020 24.373672 -0.222142 -9.435382 18.031258 -0.237558 1.127109 17.961344 -0.277070 0.905734 0.000779 -0.000010 0.000001 0.000000 0.000000 0.000000 0.000000 0.000000 0.000000 -92.383606 0.383124 3.839169 -58.524227 41.356705 0.553050 -1.356506 -2.389749 45.314751 4.101892 -8.847128 -22.858557 -12.766756 1.906859 38.999962 -0.000016 0.000023 -31.505461 -0.000133 -0.000029 -21.869381 0.000601 -0.000011 0.001019 -30.366333 0.123856 -19.101898 -20.368889 0.079612 0.341901 -20.753870 0.103719 0.392619 0.000012 -0.002504 0.000002 -31.891344 0.063070 -17.624851 -21.706911 0.032069 0.169313 -21.769720 0.037579 0.144129 -0.000340 -0.000086 -0.000161 -38.192932 -0.014387 -11.717527 -26.103973 -0.064723 -0.295322 -26.046560 -0.066718 -0.220057 0.000357 0.000011 0.000008 -41.798786 -0.109500 -5.914989 -27.954006 -0.187836 -0.950893 -27.824242 -0.203963 -0.818689 -0.000235 -0.000003 -0.000046 0.000000 0.000000 0.000000 0.000000 0.000000 0.000000 -7.547078 4.504750 8.671463 -0.370683 -0.738595 26.467163 3.561764 -10.238629 12.855887 -0.031801 -0.968229 -30.535568 0.000000 0.000000 0.000000 0.000000 0.000000 0.000000 0.000000 0.000000 0.000000 -3.866080 -3.302342 6.646675 0.058052 0.068443 18.251591 8.759396 2.164590 12.340562 -0.028429 0.581768 -27.540089 0.000000 0.000000 0.000000 0.000000 0.000000 0.000000 0.000000 0.000000 0.000000 
7.197680 86.239845 15.687555 0.678201 13.491060 -10.310686 -2.069789 0.257667 5.493502 1.252496 -0.201188 -0.499345 -1.818272 1.199631 12.179899 -0.244281 0.001258 1.571529 9.950243 -3.254804 12.178491 -2.406624 -2.466921 -6.276468 2.064329 3.574734 -23.128191 0.000000 0.000000 0.000000 96.376144 -1.050794 4.905679 65.628342 -35.849518 1.854040 1.287007 13.496207 26.790195 -1.713423 7.832917 -17.580116 11.695824 -1.868884 39.496559 0.000013 0.000037 -28.612116 0.000023 0.000040 -19.817886 0.000004 -0.000005 -0.000042 20.420748 0.025893 -9.835813 14.389298 0.074515 -0.303007 14.457836 0.105014 -0.311252 0.000006 0.000014 -0.000014 21.170639 -0.003156 -10.796749 15.255688 0.045588 -0.170591 15.109076 0.050575 -0.146473 0.000002 -0.000078 0.000002 24.451107 -0.073048 -9.538292 17.680948 -0.067434 0.314904 17.554520 -0.087013 0.243651 -0.000011 -0.000525 0.000019 24.916201 -0.225289 -9.213240 18.419872 -0.239255 1.120209 18.345152 -0.278819 0.899814 0.000731 -0.000010 0.000001 0.000000 0.000000 0.000000 0.000000 0.000000 0.000000 -92.248909 0.377934 3.749797 -58.030861 41.307724 0.934605 -1.369985 -2.534033 45.318436 4.117647 -8.766468 -22.817009 -12.999240 1.911035 38.906601 -0.000016 0.000022 -32.072449 -0.000129 -0.000028 -22.265539 0.000685 -0.000011 0.000973 -31.443045 0.125509 -19.275900 -21.212503 0.077998 0.325572 -21.580391 0.102184 0.378847 0.000013 -0.002474 0.000002 -32.958153 0.063044 -17.650503 -22.534523 0.031226 0.163473 -22.589878 0.036746 0.138982 -0.000294 -0.000087 -0.000149 -39.303627 -0.016574 -11.529078 -26.931740 -0.063394 -0.287230 -26.881546 -0.065459 -0.214090 0.000241 0.000011 0.000008 -42.900768 -0.116702 -5.565953 -28.737839 -0.184124 -0.923594 -28.606682 -0.200845 -0.800704 -0.000256 -0.000003 -0.000046 0.000000 0.000000 0.000000 0.000000 0.000000 0.000000 -7.590938 4.533862 8.574809 -0.370562 -0.733092 26.555271 3.595592 -10.251291 12.935874 -0.020528 -0.972614 -30.559586 0.000000 0.000000 0.000000 0.000000 0.000000 0.000000 0.000000 0.000000 0.000000 -3.939698 -3.379725 6.631200 0.056856 0.064418 18.201469 8.865369 2.124578 12.366755 -0.029088 0.586373 -27.545557 0.000000 0.000000 0.000000 0.000000 0.000000 0.000000 0.000000 0.000000 0.000000 
7.267236 86.260559 15.656631 0.676087 13.622263 -10.309556 -2.128286 0.269037 5.474485 1.210478 -0.183840 -0.424497 -1.779490 1.190907 12.067938 -0.228881 -0.002232 1.627814 9.806020 -3.237343 12.304467 -2.413728 -2.533355 -6.223144 2.074232 3.569319 -23.126860 0.000000 0.000000 0.000000 96.344864 -1.030718 4.858750 65.338081 -35.775597 2.140109 1.302933 13.477874 26.909899 -1.229939 8.010669 -17.430292 11.864902 -1.876593 39.428059 0.000013 0.000037 -29.018425 0.000024 0.000040 -20.098362 0.000004 -0.000005 -0.000042 21.156263 0.029887 -9.892332 14.906472 0.077526 -0.306167 14.963458 0.107849 -0.317193 0.000006 0.000014 -0.000014 21.861109 -0.002570 -10.762430 15.737546 0.046494 -0.170104 15.592136 0.050988 -0.146873 0.000001 -0.000080 0.000001 25.066669 -0.074327 -9.437687 18.099491 -0.068000 0.311741 17.977509 -0.087413 0.241822 -0.000011 -0.000589 0.000018 25.426424 -0.227826 -9.024494 18.756346 -0.236726 1.103840 18.676777 -0.277255 0.885710 0.000678 -0.000010 0.000001 0.000000 0.000000 0.000000 0.000000 0.000000 0.000000 -92.069000 0.363112 3.680934 -57.560589 41.267162 1.293945 -1.390029 -2.644519 45.262348 4.160211 -8.750674 -22.793488 -13.209554 1.913314 38.823235 -0.000016 0.000022 -32.585396 -0.000125 -0.000028 -22.623640 0.000763 -0.000010 0.000926 -32.418259 0.127426 -19.439999 -21.993900 0.075295 0.304686 -22.344322 0.099593 0.360961 0.000013 -0.002439 0.000003 -33.920444 0.063053 -17.685091 -23.295393 0.029908 0.155832 -23.344162 0.035512 0.132297 -0.000233 -0.000088 -0.000138 -40.300312 -0.018721 -11.374110 -27.683470 -0.061151 -0.276736 -27.639143 -0.063601 -0.206400 0.000141 0.000011 0.000008 -43.888962 -0.123210 -5.274133 -29.450155 -0.178181 -0.890389 -29.318537 -0.196158 -0.777871 -0.000275 -0.000003 -0.000046 0.000000 0.000000 0.000000 0.000000 0.000000 0.000000 -7.627074 4.556623 8.480906 -0.370654 -0.728352 26.624718 3.624422 -10.271214 13.029359 -0.009261 -0.976184 -30.583994 0.000000 0.000000 0.000000 0.000000 0.000000 0.000000 0.000000 0.000000 0.000000 -4.011221 -3.455754 6.617186 0.055955 0.061798 18.136572 8.971895 2.072340 12.396423 -0.030032 0.590517 -27.559586 0.000000 0.000000 0.000000 0.000000 0.000000 0.000000 0.000000 0.000000 0.000000 
